<mxfile host="Electron" modified="2024-11-28T05:15:19.391Z" agent="Mozilla/5.0 (X11; Linux x86_64) AppleWebKit/537.36 (KHTML, like Gecko) draw.io/24.6.1 Chrome/124.0.6367.207 Electron/30.0.6 Safari/537.36" etag="37B2isc9uTua4JKClH9f" version="24.6.1" type="device">
  <diagram name="Page-1" id="JFPJkxZZSjxiJD6og031">
    <mxGraphModel dx="89" dy="1730" grid="1" gridSize="10" guides="1" tooltips="1" connect="1" arrows="1" fold="1" page="1" pageScale="1" pageWidth="850" pageHeight="1100" math="0" shadow="0">
      <root>
        <mxCell id="0" />
        <mxCell id="1" parent="0" />
        <mxCell id="_TZs-UMcsAIsMrrE9qfW-36" value="Include Module :&lt;div&gt;Celestial Mechanics&lt;/div&gt;" style="ellipse;whiteSpace=wrap;html=1;fontSize=9;" vertex="1" parent="1">
          <mxGeometry x="1070" y="-310" width="120" height="60" as="geometry" />
        </mxCell>
        <mxCell id="_TZs-UMcsAIsMrrE9qfW-37" value="Calculate Celestial&lt;div&gt;Objects Positions on&lt;div&gt;Celestial Sphere&lt;/div&gt;&lt;/div&gt;" style="ellipse;whiteSpace=wrap;html=1;fontSize=9;" vertex="1" parent="1">
          <mxGeometry x="1240" y="-310" width="120" height="60" as="geometry" />
        </mxCell>
        <mxCell id="_TZs-UMcsAIsMrrE9qfW-38" value="" style="endArrow=open;endFill=1;endSize=12;html=1;rounded=0;exitX=1;exitY=0.5;exitDx=0;exitDy=0;entryX=0;entryY=0.5;entryDx=0;entryDy=0;" edge="1" parent="1" source="_TZs-UMcsAIsMrrE9qfW-36" target="_TZs-UMcsAIsMrrE9qfW-37">
          <mxGeometry width="160" relative="1" as="geometry">
            <mxPoint x="1170" y="-370" as="sourcePoint" />
            <mxPoint x="1260" y="-410" as="targetPoint" />
          </mxGeometry>
        </mxCell>
        <mxCell id="_TZs-UMcsAIsMrrE9qfW-39" value="Predict Orbital&lt;div&gt;Events&lt;/div&gt;" style="ellipse;whiteSpace=wrap;html=1;fontSize=9;" vertex="1" parent="1">
          <mxGeometry x="1440" y="-300" width="90" height="40" as="geometry" />
        </mxCell>
        <mxCell id="_TZs-UMcsAIsMrrE9qfW-40" value="&amp;lt;&amp;lt;extend&amp;gt;&amp;gt;" style="html=1;verticalAlign=bottom;labelBackgroundColor=none;endArrow=open;endFill=0;dashed=1;rounded=0;exitX=1;exitY=0.5;exitDx=0;exitDy=0;entryX=0;entryY=0.5;entryDx=0;entryDy=0;" edge="1" parent="1" source="_TZs-UMcsAIsMrrE9qfW-37" target="_TZs-UMcsAIsMrrE9qfW-39">
          <mxGeometry y="-20" width="160" relative="1" as="geometry">
            <mxPoint x="1370" y="-228" as="sourcePoint" />
            <mxPoint x="1436" y="-260" as="targetPoint" />
            <mxPoint as="offset" />
          </mxGeometry>
        </mxCell>
      </root>
    </mxGraphModel>
  </diagram>
</mxfile>
